<svg width="231" height="79" fill="none" xmlns="http://www.w3.org/2000/svg"><path d="m32.495 5-27 22.816V74l27-22.816Z" fill="#4f34f4"/><path d="m32.495 5 27 22.816V74l-27-22.816Z" fill="#a799ff"/><path d="M78.024 49 92.63 15.34h.352L107.591 49H100.2L90.87 25.328l4.62-3.168L84.316 49Zm9.988-11.704h9.724l2.244 5.368H86.03ZM111.3 49V14.284h6.16V49Zm11.045-13.068L131.056 49h-7.172l-5.589-9.548zm-6.732 7.744-.616-5.852 11.616-8.536 3.74 3.3zm19.707-13.904h6.16V49h-6.16zm-.132-6.82c0-.91.352-1.657 1.056-2.244.734-.587 1.51-.88 2.332-.88.822 0 1.57.293 2.244.88.704.587 1.056 1.335 1.056 2.244 0 .91-.352 1.657-1.056 2.244-.674.557-1.422.836-2.244.836-.821 0-1.598-.279-2.332-.836-.704-.587-1.056-1.335-1.056-2.244zm18.224 6.82.483 3.432-.088-.308c.676-1.203 1.629-2.17 2.86-2.904 1.233-.763 2.744-1.144 4.533-1.144 1.819 0 3.329.543 4.532 1.628 1.232 1.056 1.863 2.435 1.892 4.136V49h-6.16V36.9c-.03-.85-.264-1.525-.704-2.024-.411-.528-1.115-.792-2.112-.792-.94 0-1.76.308-2.464.924-.704.616-1.247 1.452-1.628 2.508-.381 1.056-.572 2.273-.572 3.652V49h-6.16V29.772Zm20.536 0h6.16V49h-6.16zm-.132-6.82c0-.91.352-1.657 1.056-2.244.733-.587 1.511-.88 2.332-.88s1.57.293 2.244.88c.704.587 1.056 1.335 1.056 2.244 0 .91-.351 1.657-1.055 2.244-.676.557-1.424.836-2.245.836-.82 0-1.599-.279-2.332-.836-.704-.587-1.056-1.335-1.056-2.244zm14.44-1.628h6.16v8.36h4.664v4.796h-4.664V49h-6.16V34.48h-2.992v-4.796h2.992zm23.608 28.204c-1.789 0-3.417-.352-4.884-1.056-1.436-.733-2.58-1.848-3.431-3.344-.85-1.496-1.276-3.403-1.276-5.72 0-2.17.44-4.048 1.32-5.632.88-1.584 2.039-2.801 3.476-3.652 1.438-.88 2.963-1.32 4.576-1.32 1.906 0 3.343.323 4.311.968.999.616 1.82 1.305 2.465 2.068l-.264.748.571-2.816h5.72V49h-6.16v-4.18l.484 1.32c-.057 0-.233.176-.527.528-.293.323-.733.719-1.32 1.188-.557.44-1.261.821-2.112 1.144-.821.352-1.804.528-2.948.528zm1.76-5.016c.734 0 1.394-.103 1.98-.308a4.895 4.895 0 0 0 1.54-.968c.44-.44.822-.983 1.144-1.628V36.9a4.11 4.11 0 0 0-1.056-1.628 4.506 4.506 0 0 0-1.672-1.056c-.645-.264-1.364-.396-2.156-.396-.88 0-1.7.235-2.464.704a4.856 4.856 0 0 0-1.76 1.848c-.44.792-.66 1.701-.66 2.728 0 1.027.235 1.95.704 2.772a5.34 5.34 0 0 0 1.848 1.936c.792.47 1.643.704 2.552.704zM81.431 60.064l.192 2.232-.096-.192a4.319 4.319 0 0 1 1.56-1.776c.688-.432 1.472-.648 2.352-.648.56 0 1.056.088 1.488.264.432.176.784.432 1.056.768.288.32.472.72.552 1.2l-.12.072c.384-.72.912-1.28 1.584-1.68.688-.416 1.408-.624 2.16-.624.976 0 1.744.28 2.304.84.576.544.872 1.256.888 2.136V70H93.12v-6.552c-.016-.512-.143-.936-.383-1.272-.224-.352-.624-.544-1.2-.576-.576 0-1.096.176-1.56.528-.448.352-.8.808-1.056 1.368a4.38 4.38 0 0 0-.408 1.776V70H86.28v-6.552c-.016-.512-.152-.936-.408-1.272-.24-.352-.648-.544-1.224-.576-.592 0-1.112.176-1.56.528-.448.352-.8.808-1.056 1.368a4.52 4.52 0 0 0-.36 1.8V70H79.44v-9.936zm36.581 10.176c-.928 0-1.776-.2-2.544-.6a4.51 4.51 0 0 1-1.8-1.752c-.432-.784-.648-1.736-.648-2.856 0-1.104.232-2.056.696-2.856.464-.816 1.08-1.44 1.848-1.872a5.234 5.234 0 0 1 2.568-.648c.928 0 1.712.216 2.352.648.64.416 1.128.912 1.464 1.488l-.144.384.216-2.112h2.064V70h-2.232v-2.592l.24.576c-.064.16-.208.368-.432.624-.208.24-.496.488-.864.744a5.21 5.21 0 0 1-1.224.648c-.464.16-.984.24-1.56.24zm.6-1.848c.56 0 1.064-.104 1.512-.312a2.958 2.958 0 0 0 1.104-.864c.304-.384.512-.84.624-1.368v-1.944a2.958 2.958 0 0 0-.672-1.248 3.154 3.154 0 0 0-1.152-.84 3.49 3.49 0 0 0-1.488-.312c-.592 0-1.136.144-1.632.432a3.318 3.318 0 0 0-1.2 1.2c-.288.512-.432 1.112-.432 1.8 0 .64.152 1.224.456 1.752.304.528.712.944 1.224 1.248a3.188 3.188 0 0 0 1.656.456zm25.966-8.328.216 2.88-.12-.384a4.112 4.112 0 0 1 1.104-1.536 5.794 5.794 0 0 1 1.536-.984c.544-.24 1.016-.36 1.416-.36l-.12 2.208c-.752-.048-1.416.096-1.992.432a3.86 3.86 0 0 0-1.344 1.344 3.57 3.57 0 0 0-.48 1.8V70h-2.208v-9.936ZM166.25 70V51.424h2.232V70Zm4.632-6.6 4.56 6.6h-2.616l-3.432-5.352zm-3.096 3.432-.216-2.136 6.024-4.848 1.368 1.176zm29.29 3.408c-1.136 0-2.112-.224-2.928-.672a4.957 4.957 0 0 1-1.896-1.872c-.432-.8-.648-1.712-.648-2.736 0-.976.248-1.864.744-2.664a5.59 5.59 0 0 1 1.992-1.92c.832-.48 1.76-.72 2.784-.72 1.312 0 2.4.384 3.264 1.152.864.768 1.448 1.824 1.752 3.168l-8.183 2.88-.528-1.32 6.72-2.448-.48.312a3.24 3.24 0 0 0-.96-1.368c-.448-.4-1.032-.6-1.752-.6-.608 0-1.152.152-1.632.456-.48.288-.856.688-1.128 1.2-.272.512-.408 1.096-.408 1.752 0 .688.144 1.296.432 1.824.288.512.68.92 1.176 1.224a3.463 3.463 0 0 0 1.728.432c.432 0 .848-.08 1.248-.24.416-.16.8-.368 1.152-.624l1.031 1.656a6.826 6.826 0 0 1-1.68.816 5.537 5.537 0 0 1-1.8.312zm23.46-14.544h2.232v4.416h2.736v1.752h-2.736V70h-2.232v-8.136h-1.824v-1.752h1.824z" fill="#000"/><path d="m48.495 43.5-36 30.5h4l34-28.5Zm2 7.5-27 23h4l25-21Zm3 6.72-19 16.28h4l17-14.28Zm2.5 7.273L45.495 74h4l8.5-7.007z" fill="#a799ff"/></svg>