<?xml version="1.0" encoding="UTF-8" standalone="no"?>
<svg
   width="24"
   height="24"
   viewBox="0 0 24 24"
   fill="none"
   version="1.1"
   id="svg6"
   sodipodi:docname="home-3.svg"
   inkscape:version="1.1.2 (b8e25be833, 2022-02-05)"
   xmlns:inkscape="http://www.inkscape.org/namespaces/inkscape"
   xmlns:sodipodi="http://sodipodi.sourceforge.net/DTD/sodipodi-0.dtd"
   xmlns="http://www.w3.org/2000/svg"
   xmlns:svg="http://www.w3.org/2000/svg">
  <defs
     id="defs10" />
  <sodipodi:namedview
     id="namedview8"
     pagecolor="#ffffff"
     bordercolor="#666666"
     borderopacity="1.0"
     inkscape:pageshadow="2"
     inkscape:pageopacity="0.0"
     inkscape:pagecheckerboard="0"
     showgrid="false"
     inkscape:zoom="29.958333"
     inkscape:cx="11.98331"
     inkscape:cy="11.98331"
     inkscape:window-width="1920"
     inkscape:window-height="1137"
     inkscape:window-x="-8"
     inkscape:window-y="-8"
     inkscape:window-maximized="1"
     inkscape:current-layer="svg6" />
  <path
     style="color:#000000;fill:#477afb;stroke-linecap:round;stroke-linejoin:round;-inkscape-stroke:none"
     d="m 11.386719,1.2109375 -9.0000002,7 A 1.0001,1.0001 0 0 0 2,9 v 11 c 0,0.795243 0.3165904,1.558748 0.8789063,2.121094 C 3.4412548,22.683487 4.2047542,23 5,23 h 14 c 0.795231,0 1.55874,-0.316552 2.121094,-0.878906 C 21.683448,21.55874 22,20.795231 22,20 V 9 A 1.0001,1.0001 0 0 0 21.613281,8.2109375 l -9,-7 a 1.0001,1.0001 0 0 0 -1.226562,0 z M 12,3.2675781 20,9.4882813 V 20 c 0,0.265568 -0.105124,0.519186 -0.292969,0.707031 C 19.519186,20.894876 19.265568,21 19,21 H 5 C 4.7343869,21 4.4807594,20.894837 4.2929687,20.707031 4.1051254,20.519178 4,20.265556 4,20 V 9.4882813 Z"
     id="path2" />
  <path
     style="color:#000000;fill:#477afb;stroke-linecap:round;stroke-linejoin:round;-inkscape-stroke:none"
     d="m 9,11 a 1.0001,1.0001 0 0 0 -1,1 v 10 a 1,1 0 0 0 1,1 1,1 0 0 0 1,-1 v -9 h 4 v 9 a 1,1 0 0 0 1,1 1,1 0 0 0 1,-1 V 12 a 1.0001,1.0001 0 0 0 -1,-1 z"
     id="path4" />
</svg>
