<svg width="20" height="20" viewBox="0 0 20 20" fill="none" xmlns="http://www.w3.org/2000/svg">
<path d="M9.9848 0.421943C9.90085 0.424839 9.81994 0.454085 9.75355 0.505537L0.553548 7.68444C0.469839 7.74971 0.415487 7.84556 0.402447 7.9509C0.389407 8.05624 0.418749 8.16245 0.484017 8.24616C0.549285 8.32987 0.645133 8.38422 0.750476 8.39726C0.855819 8.4103 0.962027 8.38096 1.04574 8.31569L1.59964 7.88366V18.4001C1.59965 18.5062 1.6418 18.6079 1.71681 18.6829C1.79182 18.7579 1.89356 18.8001 1.99964 18.8001H7.53245C7.57565 18.8072 7.61973 18.8072 7.66292 18.8001H12.3325C12.3756 18.8072 12.4197 18.8072 12.4629 18.8001H17.9996C18.1057 18.8001 18.2075 18.7579 18.2825 18.6829C18.3575 18.6079 18.3996 18.5062 18.3996 18.4001V7.88366L18.9535 8.31569C18.995 8.34802 19.0424 8.37186 19.0931 8.38586C19.1437 8.39985 19.1967 8.40374 19.2488 8.39728C19.301 8.39083 19.3514 8.37416 19.3971 8.34823C19.4428 8.32231 19.483 8.28763 19.5153 8.24618C19.5476 8.20473 19.5714 8.15732 19.5854 8.10666C19.5994 8.05599 19.6033 8.00307 19.5969 7.95091C19.5904 7.89874 19.5737 7.84836 19.5478 7.80264C19.5219 7.75692 19.4872 7.71676 19.4457 7.68444L16.3996 5.30788V2.40007H13.9996V3.43444L10.2457 0.505537C10.1713 0.447825 10.0789 0.418223 9.9848 0.421943V0.421943ZM9.99964 1.32897L17.5996 7.25944V18.0001H12.7996V10.4001H7.19964V18.0001H2.39964V7.25944L9.99964 1.32897ZM14.7996 3.20007H15.5996V4.68366L14.7996 4.05866V3.20007ZM7.99964 11.2001H11.9996V18.0001H7.99964V11.2001Z" fill="#8891A6"/>
</svg>
