<?xml version="1.0" encoding="UTF-8" standalone="no"?>
<svg
   width="24"
   height="24"
   viewBox="0 0 24 24"
   fill="none"
   version="1.1"
   id="svg4"
   sodipodi:docname="key.svg"
   inkscape:version="1.1.2 (b8e25be833, 2022-02-05)"
   xmlns:inkscape="http://www.inkscape.org/namespaces/inkscape"
   xmlns:sodipodi="http://sodipodi.sourceforge.net/DTD/sodipodi-0.dtd"
   xmlns="http://www.w3.org/2000/svg"
   xmlns:svg="http://www.w3.org/2000/svg">
  <defs
     id="defs8" />
  <sodipodi:namedview
     id="namedview6"
     pagecolor="#ffffff"
     bordercolor="#666666"
     borderopacity="1.0"
     inkscape:pageshadow="2"
     inkscape:pageopacity="0.0"
     inkscape:pagecheckerboard="0"
     showgrid="false"
     inkscape:zoom="29.958333"
     inkscape:cx="11.98331"
     inkscape:cy="11.98331"
     inkscape:window-width="1920"
     inkscape:window-height="1137"
     inkscape:window-x="-8"
     inkscape:window-y="-8"
     inkscape:window-maximized="1"
     inkscape:current-layer="g1909" />
  <g
     id="g1909">
    <path
       style="color:#000000;fill:#477afb;stroke-linecap:round;stroke-linejoin:round;-inkscape-stroke:none"
       d="m 21.253906,1.0449219 a 1.0001,1.0001 0 0 0 -0.960937,0.2480468 l -2,2.0000001 -3.5,3.4999999 -3.552735,3.5527343 C 10.137914,9.5728453 8.8743012,9.0545953 7.5117187,9.0664063 5.80776,9.0811762 4.1775371,9.7658814 2.9726563,10.970703 c -1.204914,1.204867 -1.889492,2.835133 -1.9042969,4.539063 -0.014805,1.703923 0.6404401,3.346624 1.8242187,4.572265 a 1.0001,1.0001 0 0 0 0.00781,0.0078 c 0.602061,0.610132 1.3190481,1.095654 2.109375,1.427734 0.7902891,0.331951 1.6388168,0.504976 2.4960938,0.507813 0.8573161,0.003 1.7055,-0.163464 2.4980466,-0.490235 0.79244,-0.326726 1.512926,-0.807729 2.119141,-1.414062 0.606142,-0.606142 1.087303,-1.326647 1.414062,-2.119141 0.32681,-0.792618 0.493071,-1.640881 0.490235,-2.498047 -0.0028,-0.857219 -0.175692,-1.705741 -0.507813,-2.496093 -0.198345,-0.472244 -0.551865,-0.848875 -0.853515,-1.259766 L 15.5,8.9140625 17.792969,11.207031 a 1.0001,1.0001 0 0 0 1.414062,0 l 3.5,-3.4999998 a 1.0001,1.0001 0 0 0 0,-1.4140625 L 20.414062,4 21.707031,2.7070313 A 1.0001,1.0001 0 0 0 21.253906,1.0449219 Z M 19,5.4140625 20.585937,7 18.5,9.0859375 16.914062,7.5 Z M 7.5292969,11.066406 c 1.1788162,-0.01022 2.3135246,0.443701 3.1621091,1.261719 0.42014,0.415918 0.755504,0.908201 0.984375,1.453125 0.229879,0.547046 0.349599,1.135136 0.351563,1.728516 0.002,0.593632 -0.113655,1.181887 -0.339844,1.730468 -0.22624,0.548705 -0.558858,1.04714 -0.978516,1.466797 C 10.2894,19.126697 9.7909869,19.459274 9.2421875,19.685547 8.6934957,19.911775 8.1051212,20.027436 7.5117187,20.025391 6.9182572,20.023427 6.3323658,19.903677 5.7851562,19.673828 5.2401491,19.444827 4.745923,19.109544 4.3300781,18.689453 3.512058,17.840841 3.0581171,16.706143 3.0683594,15.527344 c 0.010255,-1.180268 0.4837953,-2.308047 1.3183593,-3.142578 0.8346172,-0.834577 1.9623798,-1.30813 3.1425782,-1.31836 z"
       id="path2" />
  </g>
</svg>
