<svg viewBox="0 0 20 20" fill="none" xmlns="http://www.w3.org/2000/svg">
<g clip-path="url(#clip0_1725_1007)">
<path d="M6.71211 0C6.5043 0 6.41211 0.0531252 6.24961 0.1125C6.08711 0.171875 5.89961 0.254688 5.67461 0.35C5.22461 0.539062 4.66211 0.789062 4.07461 1.0375C3.48711 1.28594 2.8793 1.52969 2.34961 1.7125C1.81992 1.89531 1.35117 2 1.14961 2H0.399609C0.255859 1.99844 0.121485 2.07344 0.048047 2.19844C-0.0238282 2.32344 -0.0238282 2.47656 0.048047 2.60156C0.121485 2.72656 0.255859 2.80156 0.399609 2.8H1.14961C1.5668 2.8 2.03867 2.65469 2.59961 2.4625C3.16055 2.27031 3.79336 2.01406 4.38711 1.7625C4.98086 1.51094 5.54805 1.26094 5.98711 1.075C6.20742 0.982812 6.38555 0.9125 6.52461 0.8625C6.59336 0.8375 6.66992 0.821875 6.71211 0.8125C6.74805 0.821875 6.81055 0.839062 6.87461 0.8625C7.00273 0.909375 7.17617 0.976562 7.37461 1.0625C7.77148 1.23594 8.25898 1.47031 8.74961 1.7125C9.24023 1.95469 9.73242 2.20156 10.0996 2.4C10.284 2.5 10.4402 2.59688 10.5496 2.6625C10.6043 2.69531 10.648 2.71875 10.6746 2.7375C10.6465 2.70781 10.7105 2.7875 10.7746 2.8875C10.8434 2.99219 10.9324 3.13281 11.0371 3.3C11.2465 3.63594 11.5043 4.06094 11.7621 4.4875C12.2746 5.33438 12.7699 6.15313 12.7746 6.1625V6.175C12.7949 6.21719 12.8059 6.33438 12.7746 6.4375C12.7418 6.54531 12.6965 6.61094 12.6246 6.6375C12.6152 6.64063 12.4824 6.65 12.3621 6.6125C12.2418 6.575 12.1309 6.49844 12.1121 6.475C12.1121 6.475 11.573 5.80156 11.0246 5.125C10.7512 4.7875 10.473 4.44844 10.2621 4.1875C10.1574 4.05625 10.0762 3.94219 10.0121 3.8625C9.94805 3.78281 9.87617 3.69844 9.91211 3.75C9.84961 3.6625 9.82305 3.65313 9.79961 3.6375C9.77617 3.62188 9.7543 3.60938 9.73711 3.6C9.70273 3.58281 9.67305 3.56563 9.63711 3.55C9.56523 3.51875 9.4793 3.48906 9.37461 3.45C9.16523 3.37031 8.89805 3.26875 8.62461 3.175C8.35117 3.08125 8.07148 2.99375 7.84961 2.925C7.73867 2.89063 7.64336 2.85938 7.56211 2.8375C7.48086 2.81563 7.46836 2.8 7.31211 2.8C7.2793 2.8 6.85742 2.77031 6.44961 2.925C6.0418 3.07969 5.59961 3.52344 5.59961 4.2C5.59961 4.79063 6.01836 5.19375 6.38711 5.375C6.75586 5.55625 7.0418 5.6 7.24961 5.6C7.41055 5.6 7.70742 5.57031 8.09961 5.5625C8.4918 5.55469 8.94023 5.57188 9.21211 5.625C9.75898 5.73281 10.5777 6.1875 11.0371 6.5125C11.384 6.75625 11.4324 7.04844 11.3621 7.25C11.2918 7.45156 11.1027 7.63906 10.5871 7.5875C10.484 7.57656 9.95117 7.48125 9.42461 7.3875C8.89805 7.29375 8.36992 7.2 8.01211 7.2C7.64336 7.2 7.10898 7.3 6.46211 7.4C5.81523 7.5 5.09805 7.6 4.58711 7.6C3.75117 7.6 3.33398 7.28594 2.77461 6.8875C2.21523 6.48906 1.51992 6.0125 0.399609 6.0125C0.255859 6.01094 0.121485 6.08594 0.048047 6.21094C-0.0238282 6.33594 -0.0238282 6.48906 0.048047 6.61406C0.121485 6.73906 0.255859 6.81406 0.399609 6.8125C1.31211 6.8125 1.76055 7.14375 2.31211 7.5375C2.86367 7.93125 3.5293 8.4 4.58711 8.4C5.19336 8.4 5.91836 8.3 6.57461 8.2C7.23086 8.1 7.8418 8 8.01211 8C8.18242 8 8.70586 8.07656 9.19961 8.1625V9.2C9.19805 9.35469 9.28555 9.49531 9.42461 9.5625L10.2246 9.9625C10.2793 9.9875 10.3387 10.0016 10.3996 10V12.8C10.3965 12.9062 10.4371 13.0109 10.5121 13.0875L10.9121 13.4875C10.9887 13.5625 11.0934 13.6031 11.1996 13.6H11.9996C12.1059 13.6031 12.2105 13.5625 12.2871 13.4875L12.6871 13.0875C12.7621 13.0109 12.8027 12.9062 12.7996 12.8V10C12.8605 10.0016 12.9199 9.9875 12.9746 9.9625L13.7746 9.5625C13.9137 9.49531 14.0012 9.35469 13.9996 9.2V7.2C14.0027 7.09375 13.9621 6.98906 13.8871 6.9125L13.5621 6.5875C13.6277 6.31406 13.609 6.03438 13.4621 5.775C13.4621 5.77031 13.4621 5.76719 13.4621 5.7625C13.4621 5.7625 12.9668 4.92969 12.4496 4.075C12.1918 3.64688 11.9246 3.21563 11.7121 2.875C11.6059 2.70469 11.523 2.56406 11.4496 2.45C11.3762 2.33594 11.3496 2.28438 11.2621 2.1875C11.1902 2.10781 11.159 2.10625 11.1121 2.075C11.0652 2.04375 11.0121 2 10.9496 1.9625C10.8246 1.88906 10.6637 1.80313 10.4746 1.7C10.0949 1.49531 9.61055 1.24688 9.11211 1C8.61367 0.753125 8.10273 0.50625 7.68711 0.325C7.4793 0.234375 7.29336 0.15625 7.13711 0.1C6.98086 0.04375 6.90898 0 6.71211 0ZM7.26211 3.6C7.27773 3.60156 7.31836 3.60469 7.34961 3.6125C7.41367 3.62969 7.50742 3.65469 7.61211 3.6875C7.82305 3.75156 8.09492 3.84688 8.36211 3.9375C8.6293 4.02813 8.8918 4.12656 9.08711 4.2C9.18555 4.2375 9.26055 4.26563 9.31211 4.2875C9.32461 4.29375 9.3293 4.29688 9.33711 4.3C9.35273 4.31875 9.36055 4.32969 9.38711 4.3625C9.45273 4.44375 9.54336 4.55625 9.64961 4.6875C9.7293 4.7875 9.8418 4.93281 9.93711 5.05C9.74648 4.97813 9.56523 4.875 9.37461 4.8375C8.97773 4.75938 8.50273 4.75469 8.08711 4.7625C7.67148 4.77031 7.26367 4.8 7.24961 4.8C7.28242 4.8 6.95273 4.75625 6.73711 4.65C6.52148 4.54375 6.39961 4.44688 6.39961 4.2C6.39961 3.80781 6.53086 3.75313 6.73711 3.675C6.92305 3.60469 7.12148 3.6 7.26211 3.6ZM13.0996 7.275L13.1996 7.375V8.95L12.6996 9.2H12.3996C12.1793 9.2 11.9996 9.37969 11.9996 9.6V12.625L11.8246 12.8H11.3746L11.1996 12.625V9.6C11.1996 9.37969 11.0199 9.2 10.7996 9.2H10.4996L9.99961 8.95V8.3125C10.2105 8.35156 10.3902 8.375 10.5121 8.3875C10.7277 8.40938 10.9262 8.39219 11.1121 8.35C11.2215 8.50156 11.3996 8.6 11.5996 8.6C11.9309 8.6 12.1996 8.33125 12.1996 8C12.1996 7.85625 12.1465 7.72813 12.0621 7.625C12.0809 7.58594 12.1105 7.55313 12.1246 7.5125C12.1402 7.46719 12.1137 7.42031 12.1246 7.375C12.3621 7.45 12.6152 7.48594 12.8871 7.3875C12.9652 7.35938 13.034 7.31875 13.0996 7.275ZM15.3371 13.225C14.8012 13.2594 14.3355 13.4047 13.8871 13.5875C12.9902 13.9531 12.0793 14.4125 10.1496 14.4125C9.83398 14.4125 9.5668 14.4422 9.32461 14.4875C9.22305 14.4469 8.63711 14.2016 7.92461 13.9375C7.53711 13.7937 7.13086 13.6484 6.77461 13.5375C6.41836 13.4266 6.16367 13.3375 5.88711 13.3375C5.57773 13.3375 5.23242 13.4203 4.93711 13.625C4.70742 13.7844 4.50117 14.0437 4.42461 14.3625C4.31523 14.3359 4.20273 14.3125 4.07461 14.3125C3.81523 14.3125 3.53242 14.4016 3.27461 14.6C3.0168 14.7984 2.79961 15.1469 2.79961 15.575C2.79961 15.9125 2.88711 16.2313 3.08711 16.4625C3.28711 16.6938 3.54961 16.8203 3.84961 16.95C4.13086 17.0719 5.90117 17.8234 7.69961 18.55C8.59961 18.9141 9.50586 19.2703 10.2371 19.5375C10.6027 19.6719 10.9137 19.7828 11.1746 19.8625C11.4355 19.9422 11.6059 20 11.8246 20C12.0965 20 12.3199 19.9109 12.6746 19.8C13.0293 19.6891 13.459 19.5406 13.8871 19.3875C14.7434 19.0797 15.6387 18.7516 15.9621 18.65C17.1777 18.2656 18.0871 18.9625 18.0871 18.9625C18.2637 19.0969 18.5152 19.0641 18.6496 18.8875C18.784 18.7109 18.7512 18.4594 18.5746 18.325C18.5746 18.325 17.3137 17.3813 15.7121 17.8875C15.3152 18.0125 14.459 18.3328 13.6121 18.6375C13.1887 18.7891 12.7715 18.9328 12.4371 19.0375C12.1027 19.1422 11.8059 19.2 11.8246 19.2C11.8621 19.2 11.6496 19.1734 11.4121 19.1C11.1746 19.0266 10.8699 18.9188 10.5121 18.7875C9.79648 18.5266 8.89492 18.1734 7.99961 17.8125C6.21055 17.0891 4.42773 16.3266 4.16211 16.2125C3.89805 16.0984 3.76211 16.0094 3.69961 15.9375C3.63711 15.8656 3.59961 15.7953 3.59961 15.575C3.59961 15.3891 3.66211 15.3141 3.76211 15.2375C3.86211 15.1609 4.01992 15.1125 4.07461 15.1125C4.12148 15.1125 4.28867 15.1531 4.42461 15.1875C4.5543 15.2203 4.65273 15.2469 4.66211 15.25H4.67461L8.17461 16.45C8.31836 16.6953 8.54023 16.8828 8.78711 16.9875C9.20273 17.1641 9.68086 17.2 10.1621 17.2H12.3996C13.4809 17.2 14.8746 16.7625 14.8746 16.7625C15.0262 16.7359 15.148 16.625 15.1902 16.4766C15.2324 16.3281 15.1855 16.1703 15.0699 16.0688C14.9543 15.9672 14.7918 15.9406 14.6496 16C14.6496 16 13.248 16.4 12.3996 16.4H10.1621C9.7293 16.4 9.3293 16.3484 9.09961 16.25C8.86992 16.1516 8.81211 16.1109 8.81211 15.875C8.81211 15.65 8.84492 15.5484 8.99961 15.4375C9.07461 15.3844 9.19336 15.3297 9.37461 15.2875C9.3793 15.2875 9.38242 15.2875 9.38711 15.2875C9.57617 15.2453 9.83086 15.2125 10.1496 15.2125C12.2121 15.2125 13.3293 14.675 14.1871 14.325C15.0449 13.975 15.5871 13.7891 16.9496 14.3125C17.8824 14.6719 19.4496 15.325 19.4496 15.325C19.584 15.3953 19.748 15.3844 19.8715 15.2953C19.9949 15.2047 20.0559 15.0531 20.0309 14.9031C20.0043 14.7531 19.8965 14.6313 19.7496 14.5875C19.7496 14.5875 18.1965 13.9313 17.2371 13.5625C16.4809 13.2719 15.873 13.1906 15.3371 13.225ZM5.88711 14.1375C5.90742 14.1375 6.2043 14.1969 6.53711 14.3C6.86992 14.4031 7.26992 14.5469 7.64961 14.6875C8.0168 14.8234 8.08555 14.8578 8.34961 14.9625C8.19336 15.1375 8.09648 15.3469 8.04961 15.5625L5.21211 14.5875C5.22773 14.4484 5.28398 14.3688 5.39961 14.2875C5.53242 14.1953 5.7418 14.1375 5.88711 14.1375Z" fill="#8891A6"/>
</g>
<defs>
<clipPath id="clip0_1725_1007">
<rect width="20" height="20" fill="white"/>
</clipPath>
</defs>
</svg>
