<svg viewBox="0 0 20 20" fill="none" xmlns="http://www.w3.org/2000/svg">
<path d="M8.32511 0.799935C8.26574 0.812435 8.21105 0.837435 8.16261 0.874935L0.962614 6.07493C0.825114 6.17181 0.764176 6.34525 0.807926 6.50775C0.853239 6.67025 0.995426 6.78743 1.16261 6.79993L5.56261 7.19993C5.57511 7.19993 5.58761 7.19993 5.60011 7.19993H8.00011V11.1999L8.80011 11.8624V7.19993H11.2001C11.2126 7.19993 11.2251 7.19993 11.2376 7.19993L15.6376 6.79993C15.8048 6.78743 15.947 6.67025 15.9923 6.50775C16.036 6.34525 15.9751 6.17181 15.8376 6.07493L8.63761 0.874935C8.54855 0.807747 8.43449 0.779622 8.32511 0.799935ZM8.40011 2.09993L10.5501 6.39993H6.25011L8.40011 2.09993ZM7.31261 2.47493L5.36261 6.37493L2.31261 6.09993L7.31261 2.47493ZM9.50011 2.48743L14.4876 6.09993L11.4376 6.37493L9.50011 2.48743ZM16.6001 8.79993C15.611 8.79993 14.8001 9.61087 14.8001 10.5999C14.8001 10.8437 14.8485 11.0749 14.9376 11.2874C14.6079 10.9718 14.1517 10.8077 13.7001 10.8374C13.4923 10.8515 13.2845 10.9124 13.0876 11.0124L9.05011 13.0499L7.66261 11.8999C7.43918 11.714 7.16574 11.6109 6.88761 11.5999C6.60949 11.589 6.32511 11.6687 6.08761 11.8374L4.16261 13.1999H3.20011C2.5423 13.1999 2.00011 13.7421 2.00011 14.3999C2.00011 14.5406 2.0298 14.6734 2.07511 14.7999H1.20011C1.18761 14.7999 1.17511 14.7999 1.16261 14.7999C0.956364 14.8187 0.798551 14.9921 0.800114 15.1999V16.7999C0.800114 17.0202 0.979801 17.1999 1.20011 17.1999H2.00011V18.7999C2.00011 19.0202 2.1798 19.1999 2.40011 19.1999H4.00011C4.22043 19.1999 4.40011 19.0202 4.40011 18.7999V17.1999H15.6001V18.7999C15.6001 19.0202 15.7798 19.1999 16.0001 19.1999H17.6001C17.8204 19.1999 18.0001 19.0202 18.0001 18.7999V17.1999H18.8001C19.0204 17.1999 19.2001 17.0202 19.2001 16.7999V15.1999C19.2001 14.9796 19.0204 14.7999 18.8001 14.7999H17.9001L17.2751 12.5999L18.5251 11.9749C18.7345 11.9249 18.8673 11.7202 18.8267 11.5093C18.786 11.2984 18.5876 11.1562 18.3751 11.1874C18.3501 11.189 18.3251 11.1937 18.3001 11.1999C18.3673 11.0124 18.4001 10.8093 18.4001 10.5999C18.4001 9.61087 17.5892 8.79993 16.6001 8.79993ZM16.6001 9.59993C17.1564 9.59993 17.6001 10.0437 17.6001 10.5999C17.6001 11.1562 17.1564 11.5999 16.6001 11.5999C16.0439 11.5999 15.6001 11.1562 15.6001 10.5999C15.6001 10.0437 16.0439 9.59993 16.6001 9.59993ZM13.7626 11.6374C13.8689 11.6296 13.9767 11.6437 14.0751 11.6749C14.2704 11.739 14.436 11.8734 14.5376 12.0749C14.7407 12.4765 14.5892 12.9593 14.1876 13.1624L10.9376 14.7999H3.20011C2.97355 14.7999 2.80011 14.6265 2.80011 14.3999C2.80011 14.1734 2.97355 13.9999 3.20011 13.9999H4.15011C4.22668 14.0234 4.31105 14.0234 4.38761 13.9999H8.86261C8.92668 14.0031 8.9923 13.9906 9.05011 13.9624L9.10011 13.9374H9.11261C9.16261 13.9218 9.20949 13.8968 9.25011 13.8624L9.26261 13.8499C9.27043 13.8468 9.2798 13.8421 9.28761 13.8374L13.4501 11.7249C13.5501 11.6734 13.6564 11.6452 13.7626 11.6374ZM15.3001 11.8374C15.5079 12.0546 15.7704 12.2187 16.0626 12.3124L15.4001 12.6374C15.4329 12.3718 15.4064 12.0984 15.3001 11.8374ZM6.85011 12.3999C6.95636 12.4046 7.06418 12.4406 7.15011 12.5124L7.97511 13.1999H5.55011L6.55011 12.4874C6.64074 12.4234 6.74386 12.3952 6.85011 12.3999ZM16.5376 12.9749L17.0626 14.7999H12.9001L16.5376 12.9749ZM1.60011 15.5999H18.4001V16.3999H1.60011V15.5999ZM2.80011 17.1999H3.60011V18.3999H2.80011V17.1999ZM16.4001 17.1999H17.2001V18.3999H16.4001V17.1999Z" fill="#8891A6"/>
</svg>
